<svg xmlns="http://www.w3.org/2000/svg" width="203" height="50" viewBox="0 0 203 50">
  <g fill="none">
    <polygon fill="#00B8CD" points="21.7 0 0 12.5 10.92 18.611"/>
    <polygon fill="#8ED5E5" points="21.7 24.861 21.7 0 10.92 18.611"/>
    <polygon fill="#006997" points="32.62 18.611 21.7 0 21.7 24.861"/>
    <polygon fill="#00B8CD" points="43.4 12.5 21.7 0 32.62 18.611"/>
    <polygon fill="#0095B0" points="0 12.5 0 37.361 10.92 18.611"/>
    <polygon fill="#8ED5E5" points="21.7 24.861 43.4 37.361 32.62 18.611"/>
    <polygon fill="#0095B0" points="32.62 18.611 43.4 37.361 43.4 12.5"/>
    <g transform="translate(21 23.611)">
      <polygon fill="#006997" points=".7 1.25 .7 13.75 22.4 13.75"/>
      <polygon fill="#0095B0" points=".7 13.75 .7 26.111 22.4 13.75"/>
    </g>
    <polygon fill="#C8E9EE" points="10.92 18.611 0 37.361 21.7 24.861"/>
    <polygon fill="#00B8CD" points="0 37.361 21.7 49.722 21.7 37.361"/>
    <polygon fill="#0095B0" points="21.7 24.861 0 37.361 21.7 37.361"/>
    <g fill="#006997" transform="translate(57.4 5.556)">
      <polygon points="8.96 12.917 8.96 37.222 .98 37.222 .98 .417 11.2 .417 23.38 25.833 23.38 .417 31.36 .417 31.36 37.361 21 37.361"/>
      <polygon points="39.76 37.222 39.76 .417 63.14 .417 63.14 7.778 48.02 7.778 48.02 14.583 61.88 14.583 61.88 21.944 48.02 21.944 48.02 30 63 30 63 37.361 39.76 37.361"/>
      <polygon points="87.22 7.778 87.22 37.361 78.82 37.361 78.82 7.778 68.88 7.778 68.88 .417 97.3 .417 97.3 7.778"/>
      <path d="M102.48,0.416666667 L110.88,0.416666667 L110.88,37.3611111 L102.48,37.3611111 L102.48,0.416666667 Z M109.9,18.4722222 L121.8,0.416666667 L131.18,0.416666667 L119.56,18.4722222 L131.88,37.3611111 L122.5,37.3611111 L109.9,18.4722222 Z"/>
      <polygon points="137.06 37.222 137.06 .417 145.46 .417 145.46 37.361 137.06 37.361"/>
    </g>
  </g>
</svg>
